<?xml version="1.0" standalone="no"?><!DOCTYPE svg PUBLIC "-//W3C//DTD SVG 1.1//EN" "http://www.w3.org/Graphics/SVG/1.1/DTD/svg11.dtd"><svg t="1617625872970" class="icon" viewBox="0 0 1024 1024" version="1.1" xmlns="http://www.w3.org/2000/svg" p-id="2215" xmlns:xlink="http://www.w3.org/1999/xlink" width="200" height="200"><defs><style type="text/css"></style></defs><path d="M511.33 591.64c145.75 0 263.91-118.16 263.91-263.91S657.09 63.82 511.33 63.82s-263.9 118.16-263.9 263.91 118.15 263.91 263.9 263.91zM374.49 190.88c36.55-36.55 85.15-56.68 136.85-56.68s100.29 20.13 136.85 56.68c36.55 36.55 56.68 85.15 56.68 136.85s-20.13 100.29-56.68 136.85c-36.55 36.55-85.15 56.68-136.85 56.68s-100.29-20.13-136.85-56.68c-36.55-36.55-56.68-85.15-56.68-136.85s20.12-100.29 56.68-136.85zM233.08 960.12c19.4-1.15 34.2-17.81 33.05-37.21-0.29-4.95-0.44-9.92-0.44-14.77 0-135.45 110.2-245.65 245.65-245.65s245.65 110.2 245.65 245.65c0 4.86-0.15 9.83-0.44 14.77-1.15 19.4 13.65 36.06 33.05 37.21 0.71 0.04 1.41 0.06 2.11 0.06 18.48 0 33.99-14.42 35.09-33.11 0.37-6.32 0.56-12.69 0.56-18.93 0-42.65-8.36-84.04-24.85-123.02-15.92-37.64-38.7-71.43-67.71-100.44-29.01-29.01-62.8-51.79-100.44-67.71-38.98-16.49-80.37-24.85-123.02-24.85s-84.04 8.36-123.02 24.85c-37.64 15.92-71.43 38.7-100.44 67.71-29.01 29.01-51.79 62.8-67.71 100.44-16.49 38.98-24.85 80.37-24.85 123.02 0 6.24 0.19 12.6 0.56 18.93 1.14 19.4 17.8 34.19 37.2 33.05z" fill="#000000" p-id="2216"></path></svg>