<?xml version="1.0" standalone="no"?><!DOCTYPE svg PUBLIC "-//W3C//DTD SVG 1.1//EN" "http://www.w3.org/Graphics/SVG/1.1/DTD/svg11.dtd"><svg t="1617247963209" class="icon" viewBox="0 0 1024 1024" version="1.1" xmlns="http://www.w3.org/2000/svg" p-id="3003" xmlns:xlink="http://www.w3.org/1999/xlink" width="200" height="200"><defs><style type="text/css"></style></defs><path d="M656.33 63c52.157 0 95.866 36.17 107.406 84.792l67.373 0.001c41.494 0 75.21 33.298 75.88 74.628l0.011 1.255v62.415a259.828 259.828 0 0 1-84.219 191.496l-1.632 1.485-64.309 57.977a30.024 30.024 0 0 1-4.972 3.636c-34.987 98.782-128.031 170.108-238.12 172.978l-0.002 50.678h89.984c76.145 0 138.727 58.104 139.97 131.152l0.02 2.218v18.396c0 16.51-13.386 29.893-29.897 29.893H253.878c-16.512 0-29.897-13.384-29.897-29.893V897.71c0-74.086 63.075-133.37 139.99-133.37h89.982v-50.748c-108.948-3.79-200.85-74.639-235.696-172.541a30.395 30.395 0 0 1-5.097-3.716l-64.309-57.977-1.632-1.484A259.828 259.828 0 0 1 63 286.378v-62.414l0.01-1.255c0.67-41.33 34.387-74.628 75.881-74.628l67.305-0.002C217.632 99.312 261.41 63 313.67 63z m-52.6 761.128H492.057a29.919 29.919 0 0 1-8.207 1.14c-2.846 0-5.599-0.397-8.206-1.14H363.97c-40.222 0-73.004 27.031-79.158 61.751l-0.06 0.335h398.192l-0.057-0.335c-6.086-34.334-38.211-61.15-77.82-61.741l-1.338-0.01z m52.6-701.342H313.67c-27.942 0-50.594 22.65-50.594 50.589v280.536c0 110.488 89.578 200.055 200.077 200.055h43.695c110.499 0 200.076-89.567 200.076-200.055V173.375c0-27.94-22.652-50.589-50.594-50.589z m-453.047 85.081h-64.392l-0.553 0.01c-8.635 0.291-15.545 7.382-15.545 16.087v62.414l0.007 1.699a200.045 200.045 0 0 0 66.09 146.88l14.393 12.975V207.867z m627.826-0.287l-64.393-0.001v240.066l14.393-12.976a200.045 200.045 0 0 0 66.09-146.88l0.008-1.698v-62.415c0-8.704-6.91-15.795-15.545-16.087l-0.553-0.01z" fill="#d81e06" p-id="3004"></path></svg>