<?xml version="1.0" standalone="no"?><!DOCTYPE svg PUBLIC "-//W3C//DTD SVG 1.1//EN" "http://www.w3.org/Graphics/SVG/1.1/DTD/svg11.dtd"><svg t="1617248292363" class="icon" viewBox="0 0 1024 1024" version="1.1" xmlns="http://www.w3.org/2000/svg" p-id="3520" xmlns:xlink="http://www.w3.org/1999/xlink" width="200" height="200"><defs><style type="text/css"></style></defs><path d="M833.904 195.055C749.555 110.707 637.406 64.254 518.118 64.254s-231.437 46.454-315.786 130.804c-84.35 84.351-130.803 196.5-130.803 315.788 0 61.415 12.247 120.922 36.402 176.868 23.324 54.022 56.639 102.291 99.02 143.465 0.527 0.511 0.874 0.85 0.88 2.917 0.052 18.454-27.419 54.069-45.978 72.305a29.751 29.751 0 0 0 20.802 51.018h335.464c119.289 0 231.437-46.451 315.786-130.798 84.35-84.347 130.804-196.493 130.804-315.781s-46.455-231.436-130.805-315.785zM518.118 897.919H244.937c12.308-19.503 22.43-42.163 22.394-63.907-0.03-17.776-6.572-33.512-18.919-45.508-75.695-73.541-117.382-172.148-117.382-277.658 0-213.443 173.647-387.092 387.089-387.092S905.208 297.4 905.208 510.84c0 213.436-173.648 387.079-387.09 387.079z" fill="#112079" p-id="3521"></path><path d="M518.119 721.67m-33.828 0a33.828 33.828 0 1 0 67.656 0 33.828 33.828 0 1 0-67.656 0Z" fill="#112079" p-id="3522"></path><path d="M518.118 287.06c-69.845 0-126.668 56.823-126.668 126.668 0 16.431 13.319 29.75 29.75 29.75 16.431 0 29.75-13.319 29.75-29.75 0-37.036 30.131-67.168 67.168-67.168 37.037 0 67.168 30.131 67.168 67.168s-30.131 67.168-67.168 67.168c-15.688 0-28.508 12.149-29.639 27.548a29.737 29.737 0 0 0-1.294 8.676v108.587c0 16.431 13.319 29.75 29.75 29.75 16.431 0 29.75-13.319 29.75-29.75v-88.601c56.126-12.993 98.101-63.36 98.101-123.379 0.001-69.845-56.823-126.667-126.668-126.667z" fill="#112079" p-id="3523"></path></svg>