<?xml version="1.0" standalone="no"?><!DOCTYPE svg PUBLIC "-//W3C//DTD SVG 1.1//EN" "http://www.w3.org/Graphics/SVG/1.1/DTD/svg11.dtd"><svg t="1617198434996" class="icon" viewBox="0 0 1024 1024" version="1.1" xmlns="http://www.w3.org/2000/svg" p-id="5357" xmlns:xlink="http://www.w3.org/1999/xlink" width="200" height="200"><defs><style type="text/css"></style></defs><path d="M886.91 886.91c12.13-12.17 12.13-31.86 0-44.03l-224.3-224.21a299.56 299.56 0 0 0 67.33-189.7C729.75 262.83 595.11 128.19 428.97 128c-166.15 0.19-300.79 134.83-300.97 300.97 0.19 166.14 134.83 300.78 300.97 300.97a299.58 299.58 0 0 0 189.7-67.33l224.3 224.3A31.104 31.104 0 0 0 864.9 896c8.25 0.01 16.17-3.26 22.01-9.09zM667.69 428.97c-0.14 131.76-106.92 238.54-238.68 238.68-131.78-0.12-238.58-106.9-238.72-238.68 0.14-131.76 106.92-238.54 238.68-238.68 131.77 0.12 238.58 106.9 238.72 238.68z" p-id="5358"></path></svg>