<?xml version="1.0" standalone="no"?><!DOCTYPE svg PUBLIC "-//W3C//DTD SVG 1.1//EN" "http://www.w3.org/Graphics/SVG/1.1/DTD/svg11.dtd"><svg t="1617198099477" class="icon" viewBox="0 0 1024 1024" version="1.1" xmlns="http://www.w3.org/2000/svg" p-id="4543" xmlns:xlink="http://www.w3.org/1999/xlink" width="200" height="200"><defs><style type="text/css"></style></defs><path d="M317.3376 833.792c-13.7216 0-27.392-4.3008-39.0656-12.8-20.6336-15.0016-30.7712-39.936-26.4704-65.1264L281.344 583.68c0.8704-4.9664-0.8192-10.0864-4.4032-13.6192L151.7568 448.1536a66.18112 66.18112 0 0 1-16.8448-68.2496c7.8848-24.2688 28.4672-41.6256 53.7088-45.312l172.9024-25.1392c5.0176-0.7168 9.3184-3.8912 11.5712-8.3968l77.312-156.672c11.3152-22.8864 34.1504-37.12 59.6992-37.12s48.384 14.2336 59.6992 37.12l77.312 156.672c2.2528 4.5568 6.5536 7.68 11.5712 8.3968l172.9024 25.1392c25.2416 3.6864 45.824 21.0432 53.7088 45.312 7.8848 24.2688 1.4336 50.432-16.8448 68.2496l-125.1328 121.9584c-3.6352 3.5328-5.2736 8.6016-4.4032 13.6192l29.5424 172.1856c4.3008 25.1392-5.8368 50.1248-26.4704 65.1264s-47.5136 16.9472-70.0928 5.0688l-154.6752-81.3056c-4.5056-2.3552-9.8304-2.3552-14.2848 0l-154.6752 81.3056c-9.728 5.1712-20.3776 7.68-30.9248 7.68zM510.1568 158.5152c-2.8672 0-9.984 0.8192-13.7728 8.5504l-77.312 156.672c-9.6768 19.6608-28.416 33.28-50.1248 36.4032l-172.9024 25.1392c-8.5504 1.2288-11.52 7.7312-12.3904 10.4448-0.8704 2.7136-2.304 9.728 3.8912 15.7696l125.1328 121.9584c15.6672 15.3088 22.8352 37.3248 19.1488 58.9312l-29.5424 172.1856c-1.4336 8.4992 3.7888 13.3632 6.0928 15.0528 2.3552 1.6896 8.5504 5.1712 16.1792 1.1776l154.6752-81.3056c19.4048-10.1888 42.5472-10.1888 61.952 0l154.6752 81.3056c7.6288 3.9936 13.8752 0.512 16.1792-1.1776 2.304-1.6896 7.5776-6.5536 6.0928-15.0016l-29.5424-172.1856a66.56 66.56 0 0 1 19.1488-58.9312l125.1328-121.9584c6.1952-5.9904 4.7616-13.0048 3.8912-15.7696-0.8704-2.7136-3.8912-9.216-12.3904-10.4448l-172.9024-25.1392c-21.7088-3.1744-40.448-16.7424-50.1248-36.4032l-77.312-156.672c-3.9424-7.7824-11.008-8.6016-13.8752-8.6016z" fill="#888888" p-id="4544"></path><path d="M510.1568 918.272c-14.1312 0-25.6-11.4688-25.6-25.6v-84.6848c0-14.1312 11.4688-25.6 25.6-25.6s25.6 11.4688 25.6 25.6v84.6848c0 14.1312-11.4688 25.6-25.6 25.6zM882.944 658.0736c-3.1744 0-6.4-0.6144-9.472-1.8432l-78.6432-31.4368c-13.1072-5.2224-19.5072-20.1216-14.2848-33.28 5.2224-13.1072 20.1216-19.5072 33.28-14.2848l78.6432 31.4368c13.1072 5.2224 19.5072 20.1216 14.2848 33.28a25.6 25.6 0 0 1-23.808 16.128zM135.9872 658.0736c-10.1888 0-19.7632-6.0928-23.7568-16.0768-5.2736-13.1072 1.1264-28.0064 14.2848-33.28l78.6432-31.4368a25.5488 25.5488 0 0 1 33.28 14.2848c5.2736 13.1072-1.1264 28.0064-14.2848 33.28l-78.6432 31.4368c-3.1744 1.2288-6.3488 1.792-9.5232 1.792zM323.4816 280.9856c-7.8336 0-15.5136-3.584-20.5312-10.2912L252.3648 202.752a25.6 25.6 0 0 1 5.2736-35.84 25.64096 25.64096 0 0 1 35.84 5.2224l50.5856 67.9424a25.6 25.6 0 0 1-5.2736 35.84c-4.6592 3.4304-9.984 5.0688-15.3088 5.0688zM692.6336 280.9856a25.3952 25.3952 0 0 1-15.2576-5.0688 25.68704 25.68704 0 0 1-5.2736-35.84l50.5856-67.9424a25.6 25.6 0 0 1 35.84-5.2736 25.68704 25.68704 0 0 1 5.2736 35.84l-50.5856 67.9424a25.43616 25.43616 0 0 1-20.5824 10.3424z" fill="#888888" p-id="4545"></path></svg>